<svg id="Layer_1" viewBox="0 0 512 512" xmlns="http://www.w3.org/2000/svg" xmlns:xlink="http://www.w3.org/1999/xlink" data-name="Layer 1"><linearGradient id="linear-gradient" gradientUnits="userSpaceOnUse" x1="400.773" x2="105.436" y1="-34.86" y2="476.678"><stop offset="0" stop-color="#2aa3ff"/><stop offset="1" stop-color="#ce3fff"/></linearGradient><path d="m129.4 305.728c-1.144-4.272 1.394-8.663 5.665-9.806l47.553-12.724 39.618-147.809c7.321-27.363 32.27-46.869 60.669-47.432 2.492-.096 4.911 1.086 6.463 3.068s2.082 4.578 1.431 7.011l-74.807 279.155c-.959 3.577-4.195 5.937-7.73 5.937-.687 0-1.384-.089-2.078-.274-4.271-1.146-6.807-5.536-5.662-9.809l71.701-267.566c-16.514 4.268-29.997 17.163-34.517 34.054l-52.846 197.166c-.039.171-.086.339-.136.507l-7.906 29.499c-1.146 4.271-5.54 6.808-9.809 5.661-4.271-1.145-6.807-5.536-5.661-9.808l4.363-16.279-16.016 4.289c-.693.186-1.391.274-2.076.274-3.536 0-6.772-2.36-7.73-5.938-1.144-4.271 1.392-8.662 5.664-9.807l24.946-6.681 7.333-27.358-38.626 10.335c-.693.186-1.391.274-2.075.274-3.537 0-6.773-2.36-7.73-5.939zm291.574-83.097c-1.981-1.553-4.579-2.081-7.011-1.431l-151.342 40.564c-4.271 1.146-6.807 5.537-5.661 9.809 1.145 4.272 5.537 6.812 9.808 5.661l139.752-37.458c-4.269 16.514-17.165 29.998-34.056 34.518l-124.525 33.363c-4.272 1.145-6.808 5.536-5.663 9.808.959 3.578 4.194 5.938 7.73 5.938.686 0 1.383-.089 2.077-.274l124.523-33.363c27.365-7.323 46.872-32.271 47.436-60.67.051-2.518-1.086-4.911-3.068-6.464zm-319.841 111.669c4.391 16.419-5.385 33.355-21.792 37.753-2.659.712-5.335 1.052-7.966 1.052-13.617 0-26.106-9.092-29.792-22.842-4.401-16.419 5.373-33.356 21.79-37.757 16.412-4.404 33.357 5.373 37.758 21.79 0 0 0 .003.002.004zm-15.473 4.139c-1.772-6.604-7.771-10.971-14.308-10.971-1.267 0-2.553.164-3.833.507-7.887 2.114-12.582 10.253-10.468 18.142 2.113 7.883 10.254 12.575 18.147 10.466 7.877-2.111 12.572-10.251 10.461-18.144zm2.1 65.022c-5.468 1.465-10.968 2.164-16.378 2.164-27.973 0-53.633-18.683-61.207-46.943-4.379-16.338-2.132-33.407 6.327-48.064 8.459-14.658 22.115-25.142 38.452-29.521 33.744-9.031 68.546 11.055 77.585 44.78v.002c9.034 33.739-11.054 68.543-44.779 77.582zm29.309-73.438c-5.657-21.112-24.834-35.073-45.73-35.073-4.045 0-8.15.522-12.239 1.617-12.203 3.271-22.405 11.104-28.726 22.056s-8 23.706-4.728 35.912c6.753 25.198 32.764 40.202 57.97 33.456 25.194-6.753 40.201-32.759 33.453-57.968zm107.506 78.956c8.459 14.657 10.706 31.727 6.327 48.064s-14.862 29.993-29.521 38.453c-9.763 5.634-20.596 8.512-31.57 8.512-5.501 0-11.038-.723-16.494-2.185-33.726-9.04-53.813-43.843-44.78-77.583 9.04-33.729 43.844-53.818 77.583-44.782h.002c16.338 4.379 29.994 14.862 38.453 29.521zm-13.871 8.006c-6.32-10.952-16.522-18.784-28.727-22.056-4.087-1.095-8.195-1.617-12.238-1.617-20.898 0-40.073 13.959-45.731 35.073-6.75 25.209 8.259 51.215 33.456 57.968 12.204 3.271 24.961 1.592 35.912-4.729 10.952-6.32 18.785-16.522 22.056-28.728 3.272-12.206 1.593-24.96-4.728-35.912zm-11.21 31.64c-3.687 13.753-16.173 22.846-29.782 22.846-2.635 0-5.312-.341-7.976-1.056-16.407-4.397-26.183-21.334-21.792-37.753 4.399-16.412 21.337-26.19 37.755-21.795h.004c16.417 4.4 26.192 21.338 21.791 37.757zm-25.934-22.287c-1.279-.342-2.565-.505-3.831-.505-6.542 0-12.544 4.366-14.314 10.972-2.109 7.889 2.586 16.028 10.468 18.142 7.896 2.113 16.028-2.583 18.143-10.468 2.114-7.888-2.581-16.024-10.465-18.141zm328.104-381.519-30.416 30.416c-1.563 1.564-3.612 2.346-5.662 2.346s-4.099-.781-5.662-2.346l-23.159-23.159c-3.128-3.127-3.128-8.197 0-11.324l30.416-30.416c3.127-3.127 8.197-3.127 11.324 0l23.159 23.159c3.128 3.127 3.128 8.197 0 11.324zm-16.987-5.662-11.834-11.834-19.091 19.091 11.834 11.834zm-154.353 119.36c-1.502-1.501-2.346-3.538-2.346-5.662s.844-4.161 2.346-5.662l30.416-30.416c3.127-3.127 8.197-3.127 11.324 0l23.159 23.159c1.502 1.502 2.346 3.538 2.346 5.662s-.844 4.161-2.346 5.662l-30.416 30.415c-1.563 1.564-3.612 2.346-5.662 2.346s-4.099-.781-5.662-2.346zm16.987-5.662 11.834 11.834 19.091-19.091-11.834-11.834zm101.146-66.126c1.502 1.501 2.346 3.538 2.346 5.662s-.844 4.16-2.346 5.662l-30.416 30.416c-1.563 1.563-3.612 2.346-5.662 2.346s-4.099-.782-5.662-2.346l-23.188-23.188c-1.502-1.501-2.346-3.538-2.346-5.662s.844-4.161 2.346-5.662l30.416-30.415c3.127-3.129 8.197-3.129 11.324 0zm-16.987 5.662-11.862-11.862-19.091 19.091 11.862 11.862zm-154.381 108.008 30.415-30.416c1.501-1.502 3.538-2.346 5.662-2.346s4.16.844 5.662 2.346l23.188 23.188c3.128 3.127 3.128 8.197 0 11.324l-30.415 30.416c-1.501 1.502-3.538 2.346-5.662 2.346s-4.16-.844-5.662-2.346l-23.188-23.188c-3.128-3.127-3.128-8.197 0-11.324zm16.987 5.662 11.862 11.862 19.09-19.091-11.862-11.862z" fill="url(#linear-gradient)"/></svg>