<svg id="Gradient_ok" viewBox="0 0 64 64" xmlns="http://www.w3.org/2000/svg" xmlns:xlink="http://www.w3.org/1999/xlink"><linearGradient id="linear-gradient" gradientUnits="userSpaceOnUse" x1="9.34" x2="72.904" y1="72.66" y2="9.096"><stop offset="0" stop-color="#ab20ec"/><stop offset="1" stop-color="#0071fc"/></linearGradient><linearGradient id="linear-gradient-2" x1="6.223" x2="69.786" xlink:href="#linear-gradient" y1="69.542" y2="5.979"/><linearGradient id="linear-gradient-3" x1="1.765" x2="65.329" xlink:href="#linear-gradient" y1="65.085" y2="1.521"/><linearGradient id="linear-gradient-4" x1="-4.41" x2="59.154" xlink:href="#linear-gradient" y1="58.909" y2="-4.654"/><linearGradient id="linear-gradient-5" x1="5.84" x2="69.404" xlink:href="#linear-gradient" y1="69.16" y2="5.596"/><linearGradient id="linear-gradient-6" x1="14.34" x2="77.904" xlink:href="#linear-gradient" y1="77.66" y2="14.096"/><linearGradient id="linear-gradient-7" x1="-.66" x2="62.904" xlink:href="#linear-gradient" y1="62.66" y2="-.904"/><linearGradient id="linear-gradient-8" x1="-13.66" x2="49.904" xlink:href="#linear-gradient" y1="49.66" y2="-13.904"/><linearGradient id="linear-gradient-9" x1="-7.16" x2="56.404" xlink:href="#linear-gradient" y1="56.16" y2="-7.404"/><linearGradient id="linear-gradient-10" x1="12.473" x2="76.036" xlink:href="#linear-gradient" y1="75.792" y2="12.229"/><linearGradient id="linear-gradient-11" x1="13.515" x2="77.079" xlink:href="#linear-gradient" y1="76.835" y2="13.271"/><linearGradient id="linear-gradient-12" x1="13.233" x2="76.796" xlink:href="#linear-gradient" y1="76.552" y2="12.989"/><linearGradient id="linear-gradient-13" x1="18.84" x2="82.403" xlink:href="#linear-gradient" y1="82.159" y2="18.596"/><linearGradient id="linear-gradient-14" x1="19.34" x2="82.903" xlink:href="#linear-gradient" y1="82.659" y2="19.096"/><linearGradient id="linear-gradient-15" x1="17.84" x2="81.403" xlink:href="#linear-gradient" y1="81.159" y2="17.596"/><linearGradient id="linear-gradient-16" x1="-8.66" x2="54.904" xlink:href="#linear-gradient" y1="54.66" y2="-8.904"/><linearGradient id="linear-gradient-17" x1="-11.792" x2="51.771" xlink:href="#linear-gradient" y1="51.527" y2="-12.036"/><linearGradient id="linear-gradient-18" x1="-12.835" x2="50.729" xlink:href="#linear-gradient" y1="50.485" y2="-13.079"/><linearGradient id="linear-gradient-19" x1="-12.552" x2="51.011" xlink:href="#linear-gradient" y1="50.767" y2="-12.796"/><linearGradient id="linear-gradient-20" x1="-18.16" x2="45.404" xlink:href="#linear-gradient" y1="45.16" y2="-18.404"/><linearGradient id="linear-gradient-22" x1="-18.66" x2="44.904" xlink:href="#linear-gradient" y1="44.66" y2="-18.904"/><linearGradient id="linear-gradient-23" x1="-17.16" x2="46.404" xlink:href="#linear-gradient" y1="46.16" y2="-17.404"/><linearGradient id="linear-gradient-24" x1="-5.542" x2="58.021" xlink:href="#linear-gradient" y1="57.777" y2="-5.786"/><linearGradient id="linear-gradient-25" x1="-1.085" x2="62.479" xlink:href="#linear-gradient" y1="62.235" y2="-1.329"/><linearGradient id="linear-gradient-26" x1="5.091" x2="68.654" xlink:href="#linear-gradient" y1="68.41" y2="4.846"/><linearGradient id="linear-gradient-27" x1="-5.16" x2="58.403" xlink:href="#linear-gradient" y1="58.159" y2="-5.404"/><linearGradient id="linear-gradient-28" x1="1.34" x2="64.903" xlink:href="#linear-gradient" y1="64.659" y2="1.096"/><linearGradient id="linear-gradient-29" x1="7.84" x2="71.403" xlink:href="#linear-gradient" y1="71.159" y2="7.596"/><linearGradient id="linear-gradient-30" x1="-10.66" x2="52.904" xlink:href="#linear-gradient" y1="52.66" y2="-10.904"/><linearGradient id="linear-gradient-32" x1="11.34" x2="74.904" xlink:href="#linear-gradient" y1="74.66" y2="11.096"/><linearGradient id="linear-gradient-33" x1=".34" x2="63.904" xlink:href="#linear-gradient" y1="63.66" y2=".096"/><path d="m32 59c-.552 0-1-.447-1-1v-16c0-.553.448-1 1-1s1 .447 1 1v16c0 .553-.448 1-1 1z" fill="url(#linear-gradient)"/><path d="m26 57h-5c-.552 0-1-.447-1-1s.448-1 1-1h4.586l1.414-1.414v-12.056c0-.553.448-1 1-1s1 .447 1 1v12.47c0 .266-.105.52-.293.707l-2 2c-.188.188-.442.293-.707.293z" fill="url(#linear-gradient-2)"/><path d="m21 51h-7c-.552 0-1-.447-1-1s.448-1 1-1h6.586l1.414-1.414v-7.886c0-.553.448-1 1-1s1 .447 1 1v8.3c0 .266-.105.52-.293.707l-2 2c-.188.188-.442.293-.707.293z" fill="url(#linear-gradient-3)"/><path d="m16 43h-7c-.552 0-1-.447-1-1s.448-1 1-1h6.586l1.414-1.414v-3.016c0-.553.448-1 1-1s1 .447 1 1v3.43c0 .266-.105.52-.293.707l-2 2c-.188.188-.442.293-.707.293z" fill="url(#linear-gradient-4)"/><path d="m19 59c-1.654 0-3-1.346-3-3s1.346-3 3-3 3 1.346 3 3-1.346 3-3 3zm0-4c-.551 0-1 .448-1 1s.449 1 1 1 1-.448 1-1-.449-1-1-1z" fill="url(#linear-gradient-5)"/><path d="m32 63c-1.654 0-3-1.346-3-3s1.346-3 3-3 3 1.346 3 3-1.346 3-3 3zm0-4c-.551 0-1 .448-1 1s.449 1 1 1 1-.448 1-1-.449-1-1-1z" fill="url(#linear-gradient-6)"/><path d="m12 53c-1.654 0-3-1.346-3-3s1.346-3 3-3 3 1.346 3 3-1.346 3-3 3zm0-4c-.551 0-1 .448-1 1s.449 1 1 1 1-.448 1-1-.449-1-1-1z" fill="url(#linear-gradient-7)"/><path d="m4 35c-1.654 0-3-1.346-3-3s1.346-3 3-3 3 1.346 3 3-1.346 3-3 3zm0-4c-.551 0-1 .448-1 1s.449 1 1 1 1-.448 1-1-.449-1-1-1z" fill="url(#linear-gradient-8)"/><path d="m7 45c-1.654 0-3-1.346-3-3s1.346-3 3-3 3 1.346 3 3-1.346 3-3 3zm0-4c-.551 0-1 .448-1 1s.449 1 1 1 1-.448 1-1-.449-1-1-1z" fill="url(#linear-gradient-9)"/><path d="m43 57h-5c-.265 0-.52-.105-.707-.293l-2-2c-.188-.188-.293-.441-.293-.707v-12.47c0-.553.448-1 1-1s1 .447 1 1v12.056l1.414 1.414h4.586c.552 0 1 .447 1 1s-.448 1-1 1z" fill="url(#linear-gradient-10)"/><path d="m50 51h-7c-.265 0-.52-.105-.707-.293l-2-2c-.188-.188-.293-.441-.293-.707v-8.3c0-.553.448-1 1-1s1 .447 1 1v7.886l1.414 1.414h6.586c.552 0 1 .447 1 1s-.448 1-1 1z" fill="url(#linear-gradient-11)"/><path d="m55 43h-7c-.265 0-.52-.105-.707-.293l-2-2c-.188-.188-.293-.441-.293-.707v-3.43c0-.553.448-1 1-1s1 .447 1 1v3.016l1.414 1.414h6.586c.552 0 1 .447 1 1s-.448 1-1 1z" fill="url(#linear-gradient-12)"/><path d="m45 59c-1.654 0-3-1.346-3-3s1.346-3 3-3 3 1.346 3 3-1.346 3-3 3zm0-4c-.551 0-1 .448-1 1s.449 1 1 1 1-.448 1-1-.449-1-1-1z" fill="url(#linear-gradient-13)"/><path d="m52 53c-1.654 0-3-1.346-3-3s1.346-3 3-3 3 1.346 3 3-1.346 3-3 3zm0-4c-.551 0-1 .448-1 1s.449 1 1 1 1-.448 1-1-.449-1-1-1z" fill="url(#linear-gradient-14)"/><path d="m57 45c-1.654 0-3-1.346-3-3s1.346-3 3-3 3 1.346 3 3-1.346 3-3 3zm0-4c-.551 0-1 .448-1 1s.449 1 1 1 1-.448 1-1-.449-1-1-1z" fill="url(#linear-gradient-15)"/><path d="m32 23c-.552 0-1-.447-1-1v-16c0-.553.448-1 1-1s1 .447 1 1v16c0 .553-.448 1-1 1z" fill="url(#linear-gradient-16)"/><path d="m28 23.47c-.552 0-1-.447-1-1v-12.056l-1.414-1.414h-4.586c-.552 0-1-.447-1-1s.448-1 1-1h5c.265 0 .52.105.707.293l2 2c.188.188.293.441.293.707v12.47c0 .553-.448 1-1 1z" fill="url(#linear-gradient-17)"/><path d="m23 25.3c-.552 0-1-.447-1-1v-7.886l-1.414-1.414h-6.586c-.552 0-1-.447-1-1s.448-1 1-1h7c.265 0 .52.105.707.293l2 2c.188.188.293.441.293.707v8.3c0 .553-.448 1-1 1z" fill="url(#linear-gradient-18)"/><path d="m18 28.43c-.552 0-1-.447-1-1v-3.016l-1.414-1.414h-6.586c-.552 0-1-.447-1-1s.448-1 1-1h7c.265 0 .52.105.707.293l2 2c.188.188.293.441.293.707v3.43c0 .553-.448 1-1 1z" fill="url(#linear-gradient-19)"/><path d="m19 11c-1.654 0-3-1.346-3-3s1.346-3 3-3 3 1.346 3 3-1.346 3-3 3zm0-4c-.551 0-1 .448-1 1s.449 1 1 1 1-.448 1-1-.449-1-1-1z" fill="url(#linear-gradient-20)"/><path d="m32 7c-1.654 0-3-1.346-3-3s1.346-3 3-3 3 1.346 3 3-1.346 3-3 3zm0-4c-.551 0-1 .448-1 1s.449 1 1 1 1-.448 1-1-.449-1-1-1z" fill="url(#linear-gradient-8)"/><path d="m12 17c-1.654 0-3-1.346-3-3s1.346-3 3-3 3 1.346 3 3-1.346 3-3 3zm0-4c-.551 0-1 .448-1 1s.449 1 1 1 1-.448 1-1-.449-1-1-1z" fill="url(#linear-gradient-22)"/><path d="m7 25c-1.654 0-3-1.346-3-3s1.346-3 3-3 3 1.346 3 3-1.346 3-3 3zm0-4c-.551 0-1 .448-1 1s.449 1 1 1 1-.448 1-1-.449-1-1-1z" fill="url(#linear-gradient-23)"/><path d="m36 23.47c-.552 0-1-.447-1-1v-12.47c0-.266.105-.52.293-.707l2-2c.188-.188.442-.293.707-.293h5c.552 0 1 .447 1 1s-.448 1-1 1h-4.586l-1.414 1.414v12.056c0 .553-.448 1-1 1z" fill="url(#linear-gradient-24)"/><path d="m41 25.3c-.552 0-1-.447-1-1v-8.3c0-.266.105-.52.293-.707l2-2c.188-.188.442-.293.707-.293h7c.552 0 1 .447 1 1s-.448 1-1 1h-6.586l-1.414 1.414v7.886c0 .553-.448 1-1 1z" fill="url(#linear-gradient-25)"/><path d="m46 28.43c-.552 0-1-.447-1-1v-3.43c0-.266.105-.52.293-.707l2-2c.188-.188.442-.293.707-.293h7c.552 0 1 .447 1 1s-.448 1-1 1h-6.586l-1.414 1.414v3.016c0 .553-.448 1-1 1z" fill="url(#linear-gradient-26)"/><path d="m45 11c-1.654 0-3-1.346-3-3s1.346-3 3-3 3 1.346 3 3-1.346 3-3 3zm0-4c-.551 0-1 .448-1 1s.449 1 1 1 1-.448 1-1-.449-1-1-1z" fill="url(#linear-gradient-27)"/><path d="m52 17c-1.654 0-3-1.346-3-3s1.346-3 3-3 3 1.346 3 3-1.346 3-3 3zm0-4c-.551 0-1 .448-1 1s.449 1 1 1 1-.448 1-1-.449-1-1-1z" fill="url(#linear-gradient-28)"/><path d="m57 25c-1.654 0-3-1.346-3-3s1.346-3 3-3 3 1.346 3 3-1.346 3-3 3zm0-4c-.551 0-1 .448-1 1s.449 1 1 1 1-.448 1-1-.449-1-1-1z" fill="url(#linear-gradient-29)"/><path d="m13 33h-6c-.552 0-1-.447-1-1s.448-1 1-1h6c.552 0 1 .447 1 1s-.448 1-1 1z" fill="url(#linear-gradient-30)"/><path d="m60 35c-1.654 0-3-1.346-3-3s1.346-3 3-3 3 1.346 3 3-1.346 3-3 3zm0-4c-.551 0-1 .448-1 1s.449 1 1 1 1-.448 1-1-.449-1-1-1z" fill="url(#linear-gradient-6)"/><path d="m57 33h-6c-.552 0-1-.447-1-1s.448-1 1-1h6c.552 0 1 .447 1 1s-.448 1-1 1z" fill="url(#linear-gradient-32)"/><g fill="url(#linear-gradient-33)"><path d="m32 38c-3.309 0-6-2.691-6-6s2.691-6 6-6 6 2.691 6 6-2.691 6-6 6zm0-10c-2.206 0-4 1.794-4 4s1.794 4 4 4 4-1.794 4-4-1.794-4-4-4z"/><path d="m32 43c-10.832 0-19.402-9.93-19.762-10.353-.318-.373-.318-.922 0-1.295.359-.423 8.93-10.353 19.762-10.353s19.402 9.93 19.762 10.353c.318.373.318.922 0 1.295-.359.423-8.93 10.353-19.762 10.353zm-17.643-11.001c2.069 2.164 9.27 9.001 17.643 9.001s15.577-6.834 17.643-8.999c-2.069-2.164-9.27-9.001-17.643-9.001s-15.577 6.834-17.643 8.999z"/></g></svg>